<?xml version="1.0" encoding="utf-8" ?><svg xmlns="http://www.w3.org/2000/svg" xmlns:xlink="http://www.w3.org/1999/xlink" width="195" height="195" viewBox="0 0 195 195"><path fill="#004A9A" transform="scale(0.19043 0.19043)" d="M499.322 70.2766C579.504 68.111 658.341 91.1769 724.71 136.22C809.252 193.32 867.637 281.676 887.013 381.838C903.947 469.481 890.601 560.277 849.163 639.339C838.627 659.169 829.488 671.027 817.281 689.227C806.831 682.354 790.81 668.954 780.565 660.815L728.568 619.3C716.44 609.579 704.618 599.847 692.124 590.587C707.185 568.338 717.126 552.866 725.709 526.925C744.792 468.056 739.994 404.047 712.348 348.68C686.367 297.097 641.181 257.769 586.507 239.151L586.571 529.612C586.583 572.772 587.127 617.006 586.461 660.097C570.592 659.301 554.571 660.866 538.666 660.19C532.617 659.933 526.211 660.053 520.125 659.986L432.961 659.879C432.499 630.637 432.845 600.324 432.72 570.98L432.501 239.592C413.766 245.991 400.515 252.148 383.791 263.154C333.575 296.332 298.747 348.248 287.093 407.296C277.463 454.43 281.994 502.849 301.75 547.078C308.824 562.913 317.811 576.185 327.328 590.565C309.58 605.717 290.716 619.678 272.645 634.459C249.873 653.084 226.08 670.662 203.351 689.312C153.285 627.889 127.131 539.361 125.637 461.008C123.984 359.767 162.503 261.995 232.765 189.087C302.256 115.574 398.196 72.8113 499.322 70.2766Z"/><path fill="#211F20" transform="scale(0.19043 0.19043)" d="M353.154 751.255L390.544 751.061C407.538 750.969 441.658 747.031 446.037 769.3C447.709 777.803 446.859 788.552 446.947 797.384C447.275 830.611 448.362 843.67 411.325 843.499C399.001 844.271 385.098 843.626 372.635 843.605C361.122 843.585 347.966 844.239 336.723 842.597C314.44 839.343 316.069 815.403 316.573 798.61C316.952 786.12 313.679 769.675 322.609 759.632C330.147 751.153 342.789 751.524 353.154 751.255ZM341.753 820.55C351.457 820.954 361.165 821.262 370.875 821.474C382.527 821.476 394.179 821.387 405.829 821.207C410.17 821.134 417.493 821.231 421.667 820.867C422.11 807.753 422.513 786.961 422.039 773.964C411.492 773.647 400.939 773.578 390.388 773.758C383.381 773.845 346.402 773.517 342.396 774.745C340.525 778.813 341.163 814.979 341.753 820.55Z"/><path fill="#211F20" transform="scale(0.19043 0.19043)" d="M748.486 751.131L816.413 751.021C829.576 751.002 843.073 750.627 856.156 751.928C867.226 753.283 877.334 758.675 878.58 770.901C880.875 793.412 880.74 811.144 853.927 814.251C862.351 823.288 876.232 834.931 885.768 843.472L879.329 843.471C870.1 843.422 860.871 843.303 851.643 843.115C841.676 835.613 828.437 822.333 819.096 813.586C805.504 813.483 786.298 813.161 773.002 813.937C772.931 823.762 772.952 833.586 773.067 843.41C766.79 842.825 755.295 842.978 749.194 843.557C748.309 833.822 748.499 823.76 748.492 813.969L748.541 777.004C748.61 769.704 749.567 758.051 748.486 751.131ZM773.537 774.007L773.465 792.414C782.024 792.346 795.112 792.712 803.375 792.181C818.403 792.171 838.106 792.67 852.785 791.695C853.699 787.268 854.488 779.936 852.697 775.743C850.069 772.737 828.102 773.571 823.016 773.739C806.472 774.011 790.043 773.786 773.537 774.007Z"/><path fill="#211F20" transform="scale(0.19043 0.19043)" d="M632.781 751.2C652.821 750.473 675.744 751.807 695.311 751.055C740.471 749.32 735.719 770.942 735.268 805.805C735.009 818.388 735.057 830.974 735.413 843.554C726.521 843.094 720.019 842.872 711.021 843.559C711.043 838.98 711.416 817.597 710.583 814.578L709.514 814.084L630.271 814.102C629.987 821.121 629.706 836.809 630.374 843.306C621.889 842.838 613.488 843.241 604.999 843.492C605.764 828.634 604.852 811.753 605.053 796.765C605.39 771.69 601.765 754.706 632.781 751.2ZM630.051 792.395L648.625 792.329L688.123 792.349C694.484 792.349 704.232 792.638 710.39 792.092C711.431 775.281 712.258 773.713 694.69 773.73C685.218 773.987 636.017 772.925 631.95 775.252C629.296 779.405 629.992 787.238 630.051 792.395Z"/><path fill="#211F20" transform="scale(0.19043 0.19043)" d="M460.958 751.082L530.381 751.078C543.308 751.058 556.047 750.608 568.944 751.868C583.389 753.255 591.036 761.715 591.885 776.073C593.423 802.094 588.374 812.684 561.375 813.896L485.632 813.945L485.499 843.549C478.12 843.201 468.59 843.462 461.132 843.679C460.423 813.522 461.023 781.392 460.958 751.082ZM485.617 773.959C485.514 779.981 485.504 786.004 485.586 792.027C506.764 792.299 527.946 792.313 549.125 792.071C554.33 792.044 560.501 792.165 565.614 791.743C566.675 786.844 569.933 774.952 562.775 774.334C555.733 773.726 548.836 773.903 541.77 773.888L504.592 773.755C498.268 773.864 491.942 773.932 485.617 773.959Z"/><path fill="#211F20" transform="scale(0.19043 0.19043)" d="M283.728 751.184C290.212 751.02 297.021 751.079 303.532 751.036L303.149 843.548C295.127 843.311 286.69 843.5 278.633 843.564C277.966 825.103 278.545 801.75 278.917 782.828C265.311 796.042 252.325 809.821 238.948 823.26C232.324 829.913 225.786 836.609 219.371 843.464C206.074 831.122 193.117 816.795 180.218 803.904C173.807 797.498 166.497 789.204 159.594 783.474L159.117 783.645L158.925 786.375L159.022 843.499C152.507 842.612 140.462 843.169 133.75 843.56C134.333 834.026 133.92 819.863 133.921 809.983L134.048 751.51C142.581 751.454 151.115 751.474 159.648 751.569C165.218 756.108 174.753 766.765 180.047 772.249L218.561 811.995C239.494 793.267 257.461 770.094 278.817 751.82C279.294 751.412 282.838 751.236 283.728 751.184Z"/><path fill="#211F20" transform="scale(0.19043 0.19043)" d="M911.021 805.596C921.631 805.003 930.694 813.164 931.211 823.778C931.729 834.391 923.503 843.396 912.886 843.837C902.376 844.274 893.482 836.149 892.97 825.642C892.457 815.136 900.518 806.184 911.021 805.596ZM914.253 839.597C919.612 838.858 924.149 835.273 926.107 830.231C928.064 825.188 927.136 819.481 923.68 815.32C920.224 811.158 914.785 809.196 909.469 810.195C901.52 811.687 896.213 819.248 897.512 827.231C898.811 835.213 906.241 840.702 914.253 839.597Z"/><defs><linearGradient id="gradient_0" gradientUnits="userSpaceOnUse" x1="919.29535" y1="831.41449" x2="903.41486" y2="818.44025"><stop offset="0" stop-color="#211F22"/><stop offset="1" stop-color="#3C383A"/></linearGradient></defs><path fill="url(#gradient_0)" transform="scale(0.19043 0.19043)" d="M904.111 815.514C908.456 815.32 914.927 814.812 918.597 817.778C922.585 820.999 918.554 824.409 915.816 826.505C917.012 828.892 919.815 831.49 919.27 833.983L917.295 834.729C914.308 831.237 912.199 828.618 908.642 825.649C908.606 828.083 908.858 831.662 907.631 833.598L906.323 833.829L905.463 833.21C903.553 829.705 904.13 820.119 904.111 815.514ZM915.843 823.298C915.883 820.981 916.2 821.689 915.025 820.06C912.958 819.022 910.843 819.335 908.479 819.567C908.564 821.991 908.185 821.52 909.382 823.163C911.161 824.126 913.886 823.708 915.843 823.298Z"/></svg>